<svg id="Ebene_1" data-name="Ebene 1" xmlns="http://www.w3.org/2000/svg" viewBox="0 0 78 78"><defs><style>.cls-1{fill:#e2001a;}.cls-2{fill:#1a171b;}</style></defs><title>Zeichenfläche 1 Kopie 4</title><g id="Ebene_2" data-name="Ebene 2"><g id="AK_Oberösterreich" data-name="AK Oberösterreich"><path class="cls-1" d="M68.33,50.86,51,31.68,65.07,13A1.24,1.24,0,0,0,64.14,11H57.06a4,4,0,0,0-3,1.4L39.77,30.85V12.75A1.79,1.79,0,0,0,38,11H32.11a3.89,3.89,0,0,0-2.93,1.58L1,51A1.23,1.23,0,0,0,2,53H8.76a4,4,0,0,0,3.13-1.53l4.68-6.28H30.21v6A1.83,1.83,0,0,0,32,53h6a1.79,1.79,0,0,0,1.79-1.79h0V33.7l16.9,18.09A4.18,4.18,0,0,0,59.63,53h7.75a1.24,1.24,0,0,0,1-2.1ZM30.21,37.32H22.39l7.82-10.49Z"/><path class="cls-2" d="M6,64.53C6,65.85,5.21,67,3,67s-3-1.11-3-2.43V61.26c0-1.32.76-2.43,3-2.43S6,60,6,61.26Zm-4.48-.08c0,.75.38,1.2,1.49,1.2s1.49-.45,1.49-1.2v-3.1c0-.75-.38-1.2-1.49-1.2s-1.49.45-1.49,1.2Z"/><path class="cls-2" d="M12.13,64.63C12.13,66,11.7,67,9.48,67a13,13,0,0,1-2.24-.2v-8l1.45-.2v2.78a4.73,4.73,0,0,1,1.7-.38c1.24,0,1.74.76,1.74,2ZM8.68,65.68a6.31,6.31,0,0,0,.87,0c.95,0,1.14-.38,1.14-1.05V62.9c0-.46-.2-.71-.73-.71a3.51,3.51,0,0,0-1.27.33Z"/><path class="cls-2" d="M15.64,65.77a5.89,5.89,0,0,0,1.77-.27l.23,1.09a6.15,6.15,0,0,1-2.12.37c-1.81,0-2.44-.84-2.44-2.23V63.2c0-1.22.55-2.25,2.39-2.25s2.26,1.08,2.26,2.32V64.5H14.52v.3C14.52,65.5,14.76,65.77,15.64,65.77Zm-1.13-2.43h1.84v-.28c0-.55-.17-.92-.88-.92s-1,.38-1,.92Z"/><path class="cls-2" d="M21.76,62.28a11.38,11.38,0,0,0-1.53.84v3.72H18.79V61.07H20l.09.64A6.21,6.21,0,0,1,21.62,61Z"/><path class="cls-2" d="M25,67c-2,0-2.51-1.09-2.51-2.28V63.23C22.44,62.05,23,61,25,61s2.51,1.09,2.51,2.28v1.46C27.46,65.87,26.93,67,25,67ZM23.23,59h1.2v1.24h-1.2ZM25,62.18c-.77,0-1.07.34-1.07,1v1.55c0,.65.3,1,1.07,1s1.07-.34,1.07-1V63.18C26,62.53,25.72,62.18,25,62.18ZM25.47,59h1.2v1.24h-1.2Z"/><path class="cls-2" d="M30.34,67a6.81,6.81,0,0,1-2-.33l.2-1.1a6.68,6.68,0,0,0,1.72.25c.64,0,.73-.14.73-.58s-.07-.53-1-.76c-1.41-.34-1.58-.7-1.58-1.81S28.93,61,30.58,61a7.78,7.78,0,0,1,1.73.2l-.14,1.15a9.43,9.43,0,0,0-1.59-.17c-.63,0-.73.14-.73.5s0,.5.82.7c1.61.43,1.77.64,1.77,1.82S32.08,67,30.34,67Z"/><path class="cls-2" d="M36.83,66.73a4.25,4.25,0,0,1-1.27.23A1.36,1.36,0,0,1,34,65.43V62.22h-.87V61.07H34V59.64l1.45-.2v1.64H36.9l-.09,1.15H35.42v3a.46.46,0,0,0,.4.51.24.24,0,0,0,.12,0,2.93,2.93,0,0,0,.72-.12Z"/><path class="cls-2" d="M40.13,65.77a5.89,5.89,0,0,0,1.77-.27l.23,1.09A6.16,6.16,0,0,1,40,67c-1.81,0-2.44-.84-2.44-2.23V63.2C37.56,62,38.11,61,40,61s2.26,1.08,2.26,2.32V64.5H39v.3C39,65.5,39.25,65.77,40.13,65.77ZM39,63.35h1.84v-.29c0-.55-.17-.92-.88-.92s-1,.38-1,.92Z"/><path class="cls-2" d="M46.25,62.28a11.38,11.38,0,0,0-1.53.84v3.72H43.27V61.07h1.22l.09.64A6.21,6.21,0,0,1,46.11,61Z"/><path class="cls-2" d="M50.06,62.28a11.38,11.38,0,0,0-1.53.84v3.72H47.09V61.07h1.22l.09.64A6.15,6.15,0,0,1,49.92,61Z"/><path class="cls-2" d="M53.28,65.77a5.89,5.89,0,0,0,1.77-.27l.23,1.09a6.15,6.15,0,0,1-2.12.37c-1.81,0-2.44-.84-2.44-2.23V63.2c0-1.22.55-2.25,2.39-2.25s2.26,1.08,2.26,2.32V64.5H52.16v.3C52.16,65.5,52.41,65.77,53.28,65.77Zm-1.13-2.43H54v-.28c0-.55-.17-.92-.88-.92s-1,.38-1,.92Z"/><path class="cls-2" d="M56.44,60.25V58.58h1.45v1.67Zm0,6.59V61.07h1.45v5.77Z"/><path class="cls-2" d="M59,64.74V63.17c0-1.55.68-2.22,2.49-2.22a4.82,4.82,0,0,1,1.41.21l-.18,1.18a4.87,4.87,0,0,0-1.2-.15c-.83,0-1.08.25-1.08,1v1.6c0,.71.25,1,1.08,1a4.87,4.87,0,0,0,1.2-.15l.18,1.19a4.82,4.82,0,0,1-1.41.21C59.65,67,59,66.3,59,64.74Z"/><path class="cls-2" d="M67.23,66.84v-4c0-.31-.13-.46-.46-.46a4,4,0,0,0-1.5.49v4H63.82V58.71l1.45-.2v3a5.12,5.12,0,0,1,2.1-.55c1,0,1.3.68,1.3,1.71v4.18Z"/></g></g></svg>