<?xml version="1.0" encoding="UTF-8"?>
<!-- Generator: Adobe Illustrator 27.5.0, SVG Export Plug-In . SVG Version: 6.00 Build 0)  -->
<svg version="1.1" id="Ebene_1" xmlns="http://www.w3.org/2000/svg" xmlns:xlink="http://www.w3.org/1999/xlink" x="0px" y="0px" viewBox="0 0 452 40" style="enable-background:new 0 0 452 40;" xml:space="preserve">
<style type="text/css">
	.st0{fill-rule:evenodd;clip-rule:evenodd;fill:#E20613;}
	.st1{fill-rule:evenodd;clip-rule:evenodd;}
</style>
<g id="WIFO-logo" transform="translate(-1.002 -1.373)">
	<path id="Pfad_81" class="st0" d="M144.3,4.1h36.3v36.3h-36.3V4.1z"/>
	<path id="Pfad_82" class="st1" d="M29.4,4l5.4,19.7c0.3,1.3,0.7,2.6,1,4.1s0.6,3.1,0.8,4.8c0-1.5,0.1-3,0.3-4.5   c0.2-1.5,0.5-3,0.9-4.4L42.5,4h7.7l-9.5,36.4h-7.5l-6.5-23.2c-0.3-1.1-0.6-2.1-0.7-3.2c-0.2-1.1-0.3-2.2-0.4-3.4   c-0.1,1.2-0.2,2.4-0.4,3.5c-0.2,1-0.4,2.1-0.7,3.1L18,40.4h-7.5L1,4h7.8l4.8,20.2c0.3,1.2,0.5,2.5,0.7,3.8c0.2,1.3,0.3,2.8,0.4,4.4   c0.4-2.7,1-5.4,1.7-8l0.1-0.5L21.8,4H29.4z"/>
	<path id="Pfad_83" class="st1" d="M67.6,40.4V4H89v6.6H75.3v7.5H89v6.6H75.3v15.7H67.6z"/>
	<path id="Pfad_84" class="st1" d="M55.7,40.4V4H59v36.4H55.7z"/>
	<path id="Pfad_85" class="st1" d="M113.1,38.4c4.2,0,8.3-1.7,11.3-4.7c6.3-6.3,6.3-16.5,0-22.9c-1.5-1.5-3.2-2.7-5.2-3.5   c-1.9-0.8-4-1.2-6.1-1.2c-2.1,0-4.2,0.4-6.1,1.2c-1.9,0.8-3.7,2-5.2,3.5c-1.5,1.5-2.7,3.3-3.5,5.2c-2.5,6-1.1,13,3.5,17.6   c1.5,1.5,3.2,2.7,5.1,3.5C108.9,38,111,38.4,113.1,38.4L113.1,38.4L113.1,38.4z M132.6,22.3c0,2.5-0.5,5-1.5,7.3   c-1,2.3-2.4,4.4-4.2,6.2c-5.6,5.4-13.9,7.1-21.2,4.2c-4.7-1.9-8.5-5.7-10.5-10.4c-1-2.3-1.5-4.8-1.5-7.3c0-2.5,0.5-5,1.5-7.4   c1-2.3,2.4-4.4,4.2-6.2c1.8-1.8,3.9-3.2,6.2-4.1c2.4-0.9,4.9-1.4,7.5-1.4c2.6,0,5.1,0.5,7.5,1.4c2.3,0.9,4.5,2.3,6.3,4.1   c1.8,1.8,3.2,3.9,4.2,6.2C132.1,17.3,132.6,19.8,132.6,22.3L132.6,22.3L132.6,22.3z"/>
	<g id="Gruppe_1" transform="translate(191.149 1.373)">
		<path id="Pfad_86" d="M14.2,9.4c0,3.7-3,6.7-6.7,6.7c-3.7,0-6.7-3-6.7-6.7c0-3.7,3-6.7,6.7-6.7C11.2,2.7,14.2,5.7,14.2,9.4z     M13.4,9.4c0-3.2-2.5-5.9-5.7-5.9S1.8,6.1,1.7,9.3c0,0.1,0,0.1,0,0.2c0,3.2,2.5,5.9,5.7,5.9s5.9-2.5,5.9-5.7    C13.4,9.5,13.4,9.5,13.4,9.4z M5.7,0c0.4,0,0.7,0.3,0.7,0.7c0,0.4-0.3,0.7-0.7,0.7C5.3,1.5,5,1.1,5,0.7c0,0,0,0,0,0    C5,0.3,5.3,0,5.7,0z M9.3,0c0.4,0,0.7,0.3,0.7,0.7c0,0.4-0.3,0.7-0.7,0.7c-0.4,0-0.7-0.3-0.7-0.7c0,0,0,0,0,0C8.6,0.3,8.9,0,9.3,0    C9.3,0,9.3,0,9.3,0z"/>
		<path id="Pfad_87" d="M22.2,5.1c-0.4-1-1.3-1.6-2.3-1.6c-1.2,0-2.2,1-2.2,2.2c0,0.1,0,0.1,0,0.2c0,1.4,0.9,1.9,2,2.5    c0.8,0.4,1.6,0.8,2.3,1.4c0.8,0.6,1.3,1.5,1.2,2.5c0.1,2-1.5,3.7-3.5,3.8c0,0-0.1,0-0.1,0c-1.1,0-2.1-0.5-2.7-1.4    c-0.3-0.4-0.6-0.9-0.8-1.4l0.7-0.3c0.1,0.4,0.4,0.9,0.6,1.2c0.5,0.7,1.3,1.1,2.2,1.1c1.6,0,2.8-1.3,2.8-2.9c0,0,0-0.1,0-0.1    c0-0.8-0.4-1.6-1.1-2c-0.3-0.2-1-0.6-2-1.1c-1.2-0.6-1.7-1-2.1-1.7C17,7,16.9,6.5,16.9,6c-0.1-1.7,1.1-3.1,2.8-3.2    c0.1,0,0.1,0,0.2,0c1.2,0,2.3,0.7,2.8,1.9L22.2,5.1L22.2,5.1z"/>
		<path id="Pfad_88" d="M28.7,3.7v12.2h-0.9V3.7h-3.4V2.9h7.6v0.8H28.7z"/>
		<path id="Pfad_89" d="M40.3,3.7H35v4.7h5.2v0.8H35v5.9h5.4v0.8h-6.2v-13h6.2L40.3,3.7z"/>
		<path id="Pfad_90" d="M48.5,15.9l-4.2-6.1H44v6.1h-0.9V2.9H45c1-0.1,1.9,0.2,2.7,0.7c0.9,0.6,1.4,1.7,1.3,2.8    c0.1,1.4-0.8,2.7-2.2,3.1c-0.5,0.2-1,0.3-1.6,0.3l4.2,6.1L48.5,15.9z M44,9h1.2c1.8,0,2.9-1,2.9-2.6c0.1-0.9-0.4-1.8-1.1-2.3    c-0.6-0.3-1.3-0.4-2-0.4H44L44,9L44,9z"/>
		<path id="Pfad_91" d="M57.6,15.9l-4.2-6.1H53v6.1h-0.9V2.9H54c1-0.1,1.9,0.2,2.7,0.7c0.9,0.6,1.4,1.7,1.3,2.8    c0.1,1.4-0.8,2.7-2.2,3.1c-0.5,0.2-1,0.3-1.6,0.3l4.2,6.1L57.6,15.9z M53,9h1.2c1.8,0,2.9-1,2.9-2.6c0.1-0.9-0.4-1.8-1.1-2.3    c-0.6-0.3-1.3-0.4-2-0.4H53L53,9L53,9z"/>
		<path id="Pfad_92" d="M67.5,3.7h-5.4v4.7h5.2v0.8h-5.2v5.9h5.4v0.8h-6.2v-13h6.2V3.7z"/>
		<path id="Pfad_93" d="M71.1,2.9v12.9h-0.9V2.9H71.1z"/>
		<path id="Pfad_94" d="M84.9,5.6c-1.1-1.3-2.7-2-4.4-2c-3.2,0-5.8,2.6-5.8,5.8c0,0,0,0.1,0,0.1c0,3.2,2.6,5.8,5.8,5.8    c0,0,0,0,0.1,0c1.7,0,3.2-0.7,4.3-2v1.1c-1.2,1-2.7,1.6-4.3,1.6c-3.7,0.1-6.7-2.9-6.8-6.6s2.9-6.7,6.6-6.8c0.1,0,0.1,0,0.2,0    c1.6,0,3.2,0.6,4.3,1.7V5.6z"/>
		<path id="Pfad_95" d="M88.6,8.4h7.8V2.9h0.9v12.9h-0.9V9.2h-7.8v6.7h-0.9V2.9h0.9V8.4z"/>
		<path id="Pfad_96" d="M101.6,2.9v12.9h-0.9V2.9H101.6z"/>
		<path id="Pfad_97" d="M110.2,5.1c-0.4-1-1.3-1.6-2.3-1.6c-1.2,0-2.2,1-2.2,2.2c0,0.1,0,0.1,0,0.2c0,1.4,0.9,1.9,2,2.5    c0.8,0.4,1.6,0.8,2.3,1.4c0.8,0.6,1.3,1.5,1.2,2.5c0.1,2-1.5,3.7-3.5,3.8c0,0-0.1,0-0.1,0c-1.1,0-2.1-0.5-2.7-1.4    c-0.3-0.4-0.6-0.9-0.8-1.4L105,13c0.1,0.4,0.4,0.9,0.6,1.2c0.5,0.7,1.3,1.1,2.2,1.1c1.6,0,2.8-1.3,2.8-2.9c0,0,0-0.1,0-0.1    c0-0.8-0.4-1.6-1.1-2c-0.3-0.2-1-0.6-2-1.1c-1.2-0.6-1.7-1-2.1-1.7C105.1,7,105,6.5,105,6c-0.1-1.7,1.1-3.1,2.8-3.2    c0.1,0,0.1,0,0.2,0c1.2,0,2.3,0.7,2.8,1.8L110.2,5.1L110.2,5.1z"/>
		<path id="Pfad_98" d="M124.4,5.6c-1.1-1.3-2.7-2-4.4-2c-3.2,0-5.8,2.6-5.8,5.8c0,0,0,0.1,0,0.1c0,3.2,2.6,5.8,5.8,5.8    c0,0,0,0,0.1,0c1.7,0,3.2-0.7,4.3-2v1.1c-1.2,1-2.7,1.6-4.3,1.6c-3.7,0.1-6.7-2.9-6.8-6.6s2.9-6.7,6.6-6.8c0.1,0,0.1,0,0.2,0    c1.6,0,3.2,0.6,4.3,1.7L124.4,5.6L124.4,5.6z"/>
		<path id="Pfad_99" d="M128.1,8.4h7.8V2.9h0.9v12.9h-0.9V9.2h-7.8v6.7h-0.8V2.9h0.9L128.1,8.4z"/>
		<path id="Pfad_100" d="M146.5,3.7h-5.4v4.7h5.2v0.8h-5.2v5.9h5.4v0.8h-6.2v-13h6.2V3.7z"/>
		<path id="Pfad_101" d="M155.2,5.1c-0.5-1-1.5-1.6-2.5-1.6c-1.3-0.1-2.3,0.9-2.4,2.2c0,0.1,0,0.1,0,0.2c0,1.4,1,1.9,2.3,2.5    c0.9,0.4,1.8,0.8,2.6,1.4c0.9,0.5,1.4,1.5,1.4,2.5c0,2.1-1.8,3.8-4,3.8c0,0-0.1,0-0.1,0c-1.2,0-2.3-0.5-3-1.4    c-0.4-0.4-0.7-0.9-0.8-1.4l0.7-0.3c0.2,0.4,0.4,0.9,0.7,1.2c0.6,0.7,1.5,1.1,2.4,1.1c1.7,0.1,3.1-1.2,3.1-2.9c0,0,0-0.1,0-0.1    c0-0.9-0.5-1.7-1.3-2c-0.4-0.2-1.1-0.6-2.2-1.1c-0.9-0.3-1.8-0.9-2.4-1.7c-0.3-0.4-0.4-1-0.4-1.5c0-1.7,1.3-3.2,3.1-3.2    c0.1,0,0.2,0,0.3,0c1.3,0,2.5,0.7,3.1,1.8L155.2,5.1z"/>
		<path id="Pfad_102" d="M164.6,2.9v12.9h-0.8V2.9H164.6z"/>
		<path id="Pfad_103" d="M167.8,15.9V2.8l9.1,11.4V2.9h0.7v13.3l-9.1-11.4v11H167.8z"/>
		<path id="Pfad_104" d="M186,5.1c-0.4-1-1.3-1.6-2.3-1.6c-1.2,0-2.2,1-2.2,2.2c0,0.1,0,0.1,0,0.2c0,1.4,0.9,1.9,2,2.5    c0.8,0.4,1.6,0.8,2.3,1.4c0.8,0.6,1.3,1.5,1.2,2.5c0.1,2-1.5,3.7-3.5,3.8c0,0-0.1,0-0.1,0c-1.1,0-2.1-0.5-2.7-1.4    c-0.3-0.4-0.6-0.9-0.8-1.4l0.7-0.3c0.1,0.4,0.4,0.9,0.6,1.2c0.5,0.7,1.3,1.1,2.2,1.1c1.6,0,2.8-1.3,2.8-2.9c0,0,0-0.1,0-0.1    c0-0.8-0.4-1.6-1.1-2c-0.3-0.2-1-0.6-2-1.1c-1.2-0.6-1.7-1-2.1-1.7c-0.2-0.5-0.4-1-0.4-1.5c-0.1-1.7,1.1-3.1,2.8-3.2    c0.1,0,0.1,0,0.2,0c1.2,0,2.3,0.7,2.8,1.8L186,5.1L186,5.1z"/>
		<path id="Pfad_105" d="M192.6,3.7v12.2h-0.9V3.7h-3.4V2.9h7.6v0.8H192.6L192.6,3.7z"/>
		<path id="Pfad_106" d="M198.8,2.9v12.9h-0.9V2.9H198.8z"/>
		<path id="Pfad_107" d="M205,3.7v12.2h-0.9V3.7h-3.4V2.9h7.6v0.8H205z"/>
		<path id="Pfad_108" d="M211.2,2.9V11c-0.1,1,0.1,1.9,0.5,2.8c1.3,1.7,3.6,2,5.3,0.7c0.3-0.2,0.5-0.5,0.7-0.7    c0.5-0.9,0.6-1.8,0.5-2.8V2.9h0.9V11c0.1,1.2-0.1,2.3-0.7,3.3c-1.6,2-4.6,2.3-6.6,0.7c-0.3-0.2-0.5-0.4-0.7-0.7    c-0.6-1-0.9-2.2-0.7-3.3V2.9L211.2,2.9z"/>
		<path id="Pfad_109" d="M225.4,3.7v12.2h-0.9V3.7h-3.4V2.9h7.6v0.8H225.4z"/>
		<path id="Pfad_110" d="M240.5,3.7h-4.4v4.7h4.3v0.8h-4.3v6.7h-0.8v-13h5.2L240.5,3.7z"/>
		<path id="Pfad_111" d="M244,2.9V11c-0.1,1,0.1,1.9,0.5,2.8c1.3,1.7,3.6,2,5.3,0.7c0.3-0.2,0.5-0.5,0.7-0.7    c0.5-0.9,0.6-1.8,0.5-2.8V2.9h0.9V11c0.1,1.2-0.1,2.3-0.7,3.3c-1.6,2-4.6,2.3-6.6,0.7c-0.3-0.2-0.5-0.4-0.7-0.7    c-0.6-1-0.9-2.2-0.7-3.3V2.9L244,2.9z M245.8,0c0.4,0,0.7,0.3,0.7,0.7s-0.3,0.7-0.7,0.7c-0.4,0-0.7-0.3-0.7-0.7c0,0,0,0,0,0    C245,0.3,245.4,0,245.8,0L245.8,0z M249.4,0c0.4,0,0.7,0.3,0.7,0.7s-0.3,0.7-0.7,0.7c-0.4,0-0.7-0.3-0.7-0.7c0,0,0,0,0,0    C248.6,0.3,249,0,249.4,0C249.4,0,249.4,0,249.4,0z"/>
		<path id="Pfad_112" d="M260.9,15.9l-4.2-6.1h-0.4v6.1h-0.9V2.9h1.9c1-0.1,1.9,0.2,2.7,0.7c0.9,0.6,1.4,1.7,1.3,2.8    c0.1,1.4-0.8,2.7-2.2,3.1c-0.5,0.2-1,0.3-1.6,0.3l4.2,6.1L260.9,15.9z M256.3,9h1.2c1.8,0,2.9-1,2.9-2.6c0.1-0.9-0.4-1.8-1.1-2.3    c-0.6-0.3-1.3-0.4-2-0.4h-1.1V9z"/>
		<path id="Pfad_113" d="M0.8,26.2l3,11l3.9-11.7l3.7,11.7l3.4-11h0.8l-4.2,13.4L7.7,27.9l-4,11.8L0,26.2L0.8,26.2z"/>
		<path id="Pfad_114" d="M18.4,26.2v13h-0.9v-13H18.4z"/>
		<path id="Pfad_115" d="M27.3,39.2l-4.2-6.1h-0.4v6.1h-0.9v-13h1.9c1-0.1,1.9,0.2,2.7,0.7c0.9,0.6,1.4,1.7,1.3,2.8    c0.1,1.4-0.8,2.7-2.2,3.1c-0.5,0.2-1,0.3-1.6,0.3l4.2,6.1L27.3,39.2z M22.7,32.3H24c1.8,0,2.9-1,2.9-2.6c0.1-0.9-0.4-1.8-1.1-2.3    c-0.6-0.3-1.3-0.4-2-0.4h-1.1L22.7,32.3L22.7,32.3z"/>
		<path id="Pfad_116" d="M33.1,27v12.2h-0.9V27h-3.4v-0.8h7.6V27L33.1,27z"/>
		<path id="Pfad_117" d="M43.6,28.4c-0.4-1-1.3-1.6-2.3-1.6c-1.2,0-2.2,1-2.2,2.2c0,0.1,0,0.1,0,0.2c0,1.4,0.9,1.9,2,2.5    c0.8,0.4,1.6,0.8,2.3,1.4c0.8,0.6,1.3,1.5,1.2,2.5c0.1,2-1.5,3.7-3.5,3.8c0,0-0.1,0-0.1,0c-1.1,0-2.1-0.5-2.7-1.4    c-0.3-0.4-0.6-0.9-0.8-1.4l0.7-0.3c0.1,0.4,0.4,0.9,0.6,1.2c0.5,0.7,1.3,1.1,2.2,1.1c1.6,0,2.8-1.3,2.8-2.9c0,0,0-0.1,0-0.1    c0-0.8-0.4-1.6-1.1-2c-0.3-0.2-1-0.6-2-1.1c-1.2-0.6-1.7-1-2.1-1.7c-0.8-1.6-0.2-3.5,1.4-4.3c0.4-0.2,0.8-0.3,1.3-0.4    c1.2,0,2.3,0.7,2.8,1.8L43.6,28.4L43.6,28.4z"/>
		<path id="Pfad_118" d="M57.8,28.9c-1.1-1.3-2.7-2-4.4-2c-3.3,0.1-5.8,2.8-5.8,6c0.1,3.2,2.6,5.7,5.8,5.8c1.7,0,3.2-0.7,4.3-2v1.1    c-1.2,1-2.7,1.6-4.3,1.6c-3.7,0.1-6.7-2.9-6.8-6.6c-0.1-3.7,2.9-6.7,6.6-6.8c0.1,0,0.1,0,0.2,0c1.6,0,3.2,0.6,4.3,1.7V28.9    L57.8,28.9z"/>
		<path id="Pfad_119" d="M61.4,31.7h7.8v-5.5h0.9v13h-0.9v-6.7h-7.8v6.7h-0.9v-13h0.9V31.7z"/>
		<path id="Pfad_120" d="M80.3,34.9h-5.5l-1.7,4.3h-0.9l5.5-13.3L83,39.2H82L80.3,34.9z M80,34.1L77.6,28l-2.5,6.1H80z"/>
		<path id="Pfad_121" d="M90.2,27h-4.4v4.7h4.3v0.8h-4.3v6.7H85v-13h5.2V27z"/>
		<path id="Pfad_122" d="M95.6,27v12.2h-0.9V27h-3.4v-0.8h7.6V27L95.6,27z"/>
		<path id="Pfad_123" d="M106.1,28.4c-0.4-1-1.3-1.6-2.3-1.6c-1.2,0-2.2,1-2.2,2.2c0,0.1,0,0.1,0,0.2c0,1.4,0.9,1.9,2,2.5    c0.8,0.4,1.6,0.8,2.3,1.4c0.8,0.6,1.3,1.5,1.2,2.5c0.1,2-1.5,3.7-3.5,3.8c0,0-0.1,0-0.1,0c-1.1,0-2.1-0.5-2.7-1.4    c-0.3-0.4-0.6-0.9-0.8-1.4l0.7-0.3c0.1,0.4,0.4,0.9,0.6,1.2c0.5,0.7,1.3,1.1,2.2,1.1c1.6,0,2.8-1.3,2.8-2.9c0,0,0-0.1,0-0.1    c0-0.8-0.4-1.6-1.1-2c-0.3-0.2-1-0.6-2-1.1c-1.2-0.6-1.7-1-2.1-1.7c-0.8-1.6-0.2-3.5,1.4-4.3c0.4-0.2,0.8-0.3,1.3-0.4    c1.2,0,2.3,0.7,2.8,1.8L106.1,28.4L106.1,28.4z"/>
		<path id="Pfad_124" d="M115.2,27h-4.4v4.7h4.3v0.8h-4.3v6.7h-0.9v-13h5.2V27z"/>
		<path id="Pfad_125" d="M129.9,32.7c0,3.7-3,6.7-6.7,6.7c-3.7,0-6.7-3-6.7-6.7c0-3.7,3-6.7,6.7-6.7c0,0,0,0,0,0    c3.6-0.1,6.7,2.9,6.7,6.5C129.9,32.6,129.9,32.7,129.9,32.7z M129,32.7c0-3.2-2.7-5.8-5.9-5.8s-5.8,2.7-5.8,5.9    c0,3.2,2.6,5.8,5.8,5.8c3.2,0,5.8-2.5,5.8-5.7C129,32.9,129,32.8,129,32.7L129,32.7z"/>
		<path id="Pfad_126" d="M138.1,39.2l-4.2-6.1h-0.4v6.1h-0.9v-13h1.9c1-0.1,1.9,0.2,2.7,0.7c0.9,0.6,1.4,1.7,1.3,2.8    c0.1,1.4-0.8,2.7-2.2,3.1c-0.5,0.2-1,0.3-1.6,0.3l4.2,6.1L138.1,39.2L138.1,39.2z M133.6,32.3h1.2c1.8,0,2.9-1,2.9-2.6    c0.1-0.9-0.4-1.8-1.1-2.3c-0.6-0.3-1.3-0.4-2-0.4h-1.1L133.6,32.3L133.6,32.3z"/>
		<path id="Pfad_127" d="M146.9,28.4c-0.4-1-1.3-1.6-2.3-1.6c-1.2,0-2.2,1-2.2,2.2c0,0.1,0,0.1,0,0.2c0,1.4,0.9,1.9,2,2.5    c0.8,0.4,1.6,0.8,2.3,1.4c0.8,0.6,1.3,1.5,1.2,2.5c0.1,2-1.5,3.7-3.5,3.8c0,0-0.1,0-0.1,0c-1.1,0-2.1-0.5-2.7-1.4    c-0.3-0.4-0.6-0.9-0.8-1.4l0.7-0.3c0.1,0.4,0.4,0.9,0.6,1.2c0.5,0.7,1.3,1.1,2.2,1.1c1.6,0,2.8-1.3,2.8-2.9c0,0,0-0.1,0-0.1    c0-0.8-0.4-1.6-1.1-2c-0.3-0.2-1-0.6-2-1.1c-1.2-0.6-1.7-1-2.1-1.7c-0.8-1.6-0.2-3.5,1.4-4.3c0.4-0.2,0.8-0.3,1.3-0.4    c1.2,0,2.3,0.7,2.8,1.8L146.9,28.4L146.9,28.4z"/>
		<path id="Pfad_128" d="M161.1,28.9c-1.1-1.3-2.7-2-4.4-2c-3.3,0.1-5.8,2.8-5.8,6c0.1,3.2,2.6,5.7,5.8,5.8c1.7,0,3.2-0.7,4.3-2v1.1    c-1.2,1-2.7,1.6-4.3,1.6c-3.7,0.1-6.7-2.9-6.8-6.6s2.9-6.7,6.6-6.8c0.1,0,0.1,0,0.2,0c1.6,0,3.2,0.6,4.3,1.7L161.1,28.9    L161.1,28.9z"/>
		<path id="Pfad_129" d="M164.8,31.7h7.8v-5.5h0.9v13h-0.9v-6.7h-7.8v6.7h-0.9v-13h0.9V31.7z"/>
		<path id="Pfad_130" d="M177.8,26.2v8.1c-0.1,1,0.1,1.9,0.5,2.8c1.3,1.7,3.6,2,5.3,0.7c0.3-0.2,0.5-0.5,0.7-0.7    c0.5-0.9,0.6-1.8,0.5-2.8v-8.1h0.9v8.1c0.1,1.2-0.1,2.3-0.7,3.3c-1.6,2-4.6,2.3-6.6,0.7c-0.3-0.2-0.5-0.4-0.7-0.7    c-0.6-1-0.9-2.2-0.7-3.3v-8.1H177.8L177.8,26.2z"/>
		<path id="Pfad_131" d="M188.9,39.2V26.1l9.1,11.4V26.2h0.7v13.3l-9.1-11.4v11H188.9z"/>
		<path id="Pfad_132" d="M208.7,33h5.4c0,1.5-0.4,3-1.3,4.3c-1.2,1.4-3,2.3-4.9,2.2c-3.6,0.1-6.6-2.7-6.7-6.3c0-0.1,0-0.2,0-0.4    c0-3.6,2.9-6.6,6.5-6.7c0.1,0,0.2,0,0.2,0c1.5,0,2.9,0.5,4.1,1.4c0.6,0.5,1.1,1,1.6,1.6l-0.7,0.5c-0.3-0.5-0.8-1-1.2-1.4    c-2.5-2.1-6.1-1.7-8.2,0.7c-0.9,1.1-1.4,2.5-1.4,3.9c-0.1,3.2,2.4,5.8,5.6,5.8c0.1,0,0.1,0,0.2,0c1.8,0.1,3.5-0.8,4.5-2.2    c0.5-0.8,0.8-1.7,0.9-2.7h-4.6V33L208.7,33z"/>
	</g>
</g>
</svg>